{"title":"Thor 2011 TS H264 AAC-P4Pi (KingdomRg)","uid":6361974,"size":1405946377,"categoryP":"video","categoryS":"movies","magnet":"?xt=urn:btih:c1d6cba4f3c642f764d53fe8717d257323468746&amp;dn=Thor+2011+TS+H264+AAC-P4Pi+%28KingdomRg%29&amp;tr=udp%3A%2F%2Ftracker.openbittorrent.com%3A80&amp;tr=udp%3A%2F%2Fopen.demonii.com%3A1337&amp;tr=udp%3A%2F%2Ftracker.coppersurfer.tk%3A6969&amp;tr=udp%3A%2F%2Fexodus.desync.com%3A6969","seeders":1,"leechers":0,"uploader":"papis_nasty_KVCD","files":-1,"time":1304364549,"description":"\nVideo\nID                               : 0\nFormat                           : MPEG-4 Visual\nFormat profile                   : Advanced Simple@L5\nFormat settings, BVOP            : 2\nFormat settings, QPel            : No\nFormat settings, GMC             : No warppoints\nFormat settings, Matrix          : Default (MPEG)\nMuxing mode                      : Packed bitstream\nCodec ID                         : XVID\nCodec ID/Hint                    : XviD\nDuration                         : 1h 44mn\nBit rate                         : 1 636 Kbps\nWidth                            : 720 pixels\nHeight                           : 304 pixels\nDisplay aspect ratio             : 2.35:1\nFrame rate                       : 25.000 fps\nColor space                      : YUV\nChroma subsampling               : 4:2:0\nBit depth                        : 8 bits\nScan type                        : Progressive\nCompression mode                 : Lossy\nBits/(Pixel*Frame)               : 0.299\nStream size                      : 1.19 GiB (92%)\nWriting library                  : XviD 61\n\nAudio\nID                               : 1\nFormat                           : MPEG Audio\nFormat version                   : Version 1\nFormat profile                   : Layer 3\nMode                             : Joint stereo\nMode extension                   : MS Stereo\nCodec ID                         : 55\nCodec ID/Hint                    : MP3\nDuration                         : 1h 44mn\nBit rate mode                    : Constant\nBit rate                         : 128 Kbps\nChannel(s)                       : 2 channels\nSampling rate                    : 44.1 KHz\nCompression mode                 : Lossy\nDelay relative to video          : 4ms\nStream size                      : 95.2 MiB (7%)\nAlignment                        : Split accross interleaves\nInterleave, duration             : 40 ms (1.00 video frame)\nInterleave, preload duration     : 500 ms\n\n &lt;a href=&quot;\nhttp://bayimg.com/GaHPCAaDn&quot; rel=&quot;nofollow&quot; target=&quot;_NEW&quot;&gt;\nhttp://bayimg.com/GaHPCAaDn&lt;/a&gt; &lt;a href=&quot;\nhttp://bayimg.com/GaHpeAaDn&quot; rel=&quot;nofollow&quot; target=&quot;_NEW&quot;&gt;\nhttp://bayimg.com/GaHpeAaDn&lt;/a&gt; &lt;a href=&quot;\nhttp://bayimg.com/gahPfaaDn&quot; rel=&quot;nofollow&quot; target=&quot;_NEW&quot;&gt;\nhttp://bayimg.com/gahPfaaDn&lt;/a&gt;","torrent":{"xt":"urn:btih:c1d6cba4f3c642f764d53fe8717d257323468746","amp;dn":"Thor+2011+TS+H264+AAC-P4Pi+%28KingdomRg%29","amp;tr":["udp%3A%2F%2Ftracker.openbittorrent.com%3A80","udp%3A%2F%2Fopen.demonii.com%3A1337","udp%3A%2F%2Ftracker.coppersurfer.tk%3A6969","udp%3A%2F%2Fexodus.desync.com%3A6969"],"infoHash":"c1d6cba4f3c642f764d53fe8717d257323468746","infoHashBuffer":{"type":"Buffer","data":[193,214,203,164,243,198,66,247,100,213,63,232,113,125,37,115,35,70,135,70]},"announce":[],"urlList":[]}}